<svg width="16" height="17" viewBox="0 0 16 17" fill="none" xmlns="http://www.w3.org/2000/svg">
<path d="M11.9961 1.83333C13.4668 1.83333 14.6628 3.02933 14.6628 4.5V12.5C14.6628 13.9707 13.4668 15.1667 11.9961 15.1667H3.99609C2.52543 15.1667 1.32943 13.9707 1.32943 12.5V4.5C1.32943 3.02933 2.52543 1.83333 3.99609 1.83333H11.9961ZM11.9961 0.5H3.99609C2.93523 0.5 1.91781 0.921427 1.16767 1.67157C0.417521 2.42172 -0.00390625 3.43913 -0.00390625 4.5L-0.00390625 12.5C-0.00390625 13.5609 0.417521 14.5783 1.16767 15.3284C1.91781 16.0786 2.93523 16.5 3.99609 16.5H11.9961C13.057 16.5 14.0744 16.0786 14.8245 15.3284C15.5747 14.5783 15.9961 13.5609 15.9961 12.5V4.5C15.9961 3.43913 15.5747 2.42172 14.8245 1.67157C14.0744 0.921427 13.057 0.5 11.9961 0.5Z" fill="#3B5D8F"/>
<path d="M7.99479 12.5C7.81798 12.5 7.64841 12.4298 7.52339 12.3047C7.39836 12.1797 7.32812 12.0101 7.32812 11.8333V5.16667C7.32812 4.98986 7.39836 4.82029 7.52339 4.69526C7.64841 4.57024 7.81798 4.5 7.99479 4.5C8.1716 4.5 8.34117 4.57024 8.4662 4.69526C8.59122 4.82029 8.66146 4.98986 8.66146 5.16667V11.8333C8.66146 12.0101 8.59122 12.1797 8.4662 12.3047C8.34117 12.4298 8.1716 12.5 7.99479 12.5Z" fill="#3B5D8F"/>
<path d="M3.99609 8.50102C3.99609 8.32421 4.06633 8.15464 4.19136 8.02961C4.31638 7.90459 4.48595 7.83435 4.66276 7.83435H11.3294C11.5062 7.83435 11.6758 7.90459 11.8008 8.02961C11.9259 8.15464 11.9961 8.32421 11.9961 8.50102C11.9961 8.67783 11.9259 8.8474 11.8008 8.97242C11.6758 9.09745 11.5062 9.16768 11.3294 9.16768H4.66276C4.48595 9.16768 4.31638 9.09745 4.19136 8.97242C4.06633 8.8474 3.99609 8.67783 3.99609 8.50102Z" fill="#3B5D8F"/>
</svg>
