<svg width="16" height="17" viewBox="0 0 16 17" fill="none" xmlns="http://www.w3.org/2000/svg">
<path d="M12 16.5H4C1.8 16.5 0 14.7 0 12.5V4.5C0 2.3 1.8 0.5 4 0.5H12C14.2 0.5 16 2.3 16 4.5V12.5C16 14.7 14.2 16.5 12 16.5ZM1.33333 5.83333V12.5C1.33333 13.9667 2.53333 15.1667 4 15.1667H12C13.4667 15.1667 14.6667 13.9667 14.6667 12.5V5.83333H1.33333ZM11.6667 4.5H14.6667C14.6667 3.03333 13.4667 1.83333 12 1.83333H9.93333L11.6667 4.5ZM7 4.5H10.0667L8.26667 1.83333H5.26667L7 4.5ZM1.33333 4.5H5.4L3.66667 1.83333C2.33333 2.03333 1.33333 3.16667 1.33333 4.5Z" fill="#3B5D8F"/>
<path d="M7.33333 9.70005V11.3667L8.73333 10.5667L7.33333 9.70005ZM6.66667 13.1667C6.33333 13.1667 6 12.8334 6 12.5V8.50005C6 8.23338 6.13333 8.03338 6.33333 7.90005C6.53333 7.76672 6.8 7.76672 7 7.90005L10.3333 9.90005C10.5333 10.0334 10.6667 10.2334 10.6667 10.5C10.6667 10.7667 10.5333 10.9667 10.3333 11.1L7 13.1C6.93333 13.1667 6.8 13.1667 6.66667 13.1667Z" fill="#3B5D8F"/>
</svg>
