<svg width="18" height="17" viewBox="0 0 18 17" fill="none" xmlns="http://www.w3.org/2000/svg">
<path d="M6.33279 11.1696C5.53823 11.1707 4.75357 10.9933 4.03671 10.6507C3.94885 10.6058 3.84775 10.594 3.75193 10.6175L2.41639 10.9884C2.29039 11.0233 2.1575 11.0253 2.03053 10.994C1.90356 10.9627 1.78679 10.8993 1.69146 10.8098C1.59613 10.7203 1.52546 10.6077 1.48626 10.4829C1.44706 10.3582 1.44065 10.2254 1.46765 10.0975L1.75014 8.75471C1.76786 8.65676 1.74903 8.5557 1.69722 8.4707C1.13284 7.48144 0.901783 6.33682 1.0382 5.20608C1.18382 4.02894 1.71586 2.93336 2.55095 2.09104C3.38604 1.24872 4.47699 0.707246 5.65283 0.55148C7.05291 0.354585 8.47385 0.721931 9.60307 1.57271C10.7323 2.42348 11.4773 3.68799 11.6742 5.08806C11.8711 6.48813 11.5037 7.90908 10.653 9.0383C9.8022 10.1675 8.53769 10.9125 7.13762 11.1094C6.87119 11.1493 6.60218 11.1694 6.33279 11.1696ZM3.84559 9.84356C4.02561 9.84442 4.20317 9.88552 4.36526 9.96386C5.00646 10.2696 5.71011 10.4216 6.42033 10.4078C7.13055 10.3939 7.82776 10.2147 8.45658 9.88427C9.0854 9.55385 9.62851 9.08134 10.0428 8.50428C10.457 7.92723 10.731 7.26152 10.8429 6.56005C10.9549 5.85858 10.9017 5.14066 10.6877 4.46333C10.4736 3.786 10.1045 3.16792 9.6098 2.65818C9.11506 2.14844 8.50828 1.7611 7.83764 1.52691C7.167 1.29272 6.45099 1.21814 5.74649 1.3091C5.00279 1.40424 4.29397 1.68108 3.68266 2.11517C3.07134 2.54927 2.57636 3.12724 2.24143 3.79804C1.9065 4.46883 1.74195 5.21179 1.7623 5.96128C1.78266 6.71076 1.9873 7.44369 2.35814 8.09532C2.50187 8.34213 2.55035 8.633 2.49443 8.91309L2.21271 10.2559L3.54787 9.88505C3.64473 9.85758 3.7449 9.84387 3.84559 9.84356Z" fill="#3B5D8F" stroke="#3B5D8F" stroke-width="0.400002"/>
<path d="M12.0418 16.5005C11.7906 16.5004 11.5398 16.4816 11.2914 16.4442C10.2295 16.2844 9.24866 15.7824 8.49812 15.0142C7.74759 14.2461 7.26836 13.2539 7.13329 12.1885C7.06538 11.6472 7.08505 11.0984 7.19154 10.5633C7.20022 10.5132 7.21883 10.4655 7.24626 10.4227C7.27369 10.38 7.3094 10.3432 7.35127 10.3145C7.39314 10.2857 7.44033 10.2657 7.49007 10.2555C7.53981 10.2453 7.5911 10.2451 7.6409 10.255C7.6907 10.2649 7.73802 10.2847 7.78006 10.3131C7.82211 10.3416 7.85804 10.3782 7.88574 10.4208C7.91343 10.4633 7.93233 10.511 7.94133 10.561C7.95032 10.6109 7.94923 10.6622 7.93811 10.7118C7.84759 11.1669 7.831 11.6337 7.889 12.0941C7.97432 12.7479 8.21288 13.3723 8.58525 13.9165C8.95761 14.4606 9.45325 14.9091 10.0318 15.2254C10.6103 15.5417 11.2554 15.7168 11.9145 15.7365C12.5735 15.7563 13.2279 15.62 13.8243 15.3389C14.0773 15.217 14.3656 15.19 14.6368 15.2628L15.804 15.5868L15.5573 14.4153C15.5018 14.1357 15.5498 13.8455 15.6925 13.5987C16.1268 12.8304 16.3052 11.9438 16.2019 11.0673C16.0826 10.0951 15.6289 9.19457 14.9186 8.52007C14.2082 7.84558 13.2855 7.43908 12.3083 7.37023C11.9377 7.34612 11.5655 7.37173 11.2016 7.44637C11.1521 7.45773 11.1009 7.45907 11.0508 7.45032C11.0008 7.44157 10.9531 7.4229 10.9104 7.39542C10.8677 7.36794 10.831 7.33221 10.8023 7.29031C10.7736 7.24841 10.7536 7.20121 10.7434 7.15146C10.7333 7.10172 10.7332 7.05045 10.7431 7.00067C10.7531 6.95089 10.7729 6.9036 10.8014 6.86158C10.8299 6.81957 10.8665 6.78368 10.9091 6.75603C10.9517 6.72837 10.9993 6.70951 11.0493 6.70056C11.4792 6.61211 11.919 6.5815 12.3571 6.60957C13.5119 6.69131 14.6023 7.17202 15.4417 7.96936C16.2811 8.7667 16.8171 9.83106 16.958 10.9802C17.0804 12.016 16.8695 13.064 16.3557 13.9718C16.3042 14.0578 16.2853 14.1594 16.3024 14.2581L16.5495 15.4296C16.5764 15.5575 16.57 15.6903 16.5307 15.815C16.4915 15.9397 16.4207 16.0523 16.3254 16.1418C16.23 16.2312 16.1132 16.2946 15.9862 16.3259C15.8592 16.3571 15.7263 16.3551 15.6004 16.32L14.4327 15.9957C14.3372 15.9729 14.2367 15.9846 14.1491 16.0288C13.4902 16.3399 12.7705 16.501 12.0418 16.5005Z" fill="#3B5D8F" stroke="#3B5D8F" stroke-width="0.400002"/>
<path d="M13.9439 13.8355C13.8728 13.8359 13.8031 13.8164 13.7425 13.7792C13.682 13.742 13.633 13.6886 13.6013 13.625L12.0403 10.4989L10.4794 13.625C10.4343 13.7153 10.3551 13.7841 10.2593 13.8161C10.1635 13.8481 10.0589 13.8407 9.96851 13.7955C9.87814 13.7504 9.8094 13.6712 9.77741 13.5754C9.74543 13.4796 9.75281 13.375 9.79795 13.2846L11.7015 9.47749C11.7367 9.41848 11.7866 9.36963 11.8463 9.3357C11.906 9.30177 11.9736 9.28394 12.0423 9.28394C12.1109 9.28394 12.1785 9.30177 12.2382 9.3357C12.2979 9.36963 12.3478 9.41848 12.383 9.47749L14.2866 13.2846C14.3156 13.3428 14.3293 13.4075 14.3263 13.4725C14.3233 13.5375 14.3036 13.6006 14.2693 13.6559C14.2349 13.7111 14.187 13.7567 14.13 13.7881C14.073 13.8195 14.009 13.8359 13.9439 13.8355Z" fill="#3B5D8F" stroke="#3B5D8F" stroke-width="0.400002"/>
<path d="M10.7053 12.7508C10.6043 12.7517 10.5071 12.7126 10.435 12.6418C10.3629 12.5711 10.3219 12.4747 10.3209 12.3737C10.32 12.2727 10.3592 12.1755 10.4299 12.1034C10.5006 12.0313 10.5971 11.9903 10.698 11.9894L13.3794 11.9399H13.3863C13.4872 11.9389 13.5844 11.9781 13.6565 12.0488C13.7286 12.1195 13.7696 12.216 13.7706 12.317C13.7715 12.4179 13.7324 12.5151 13.6616 12.5872C13.5909 12.6593 13.4945 12.7003 13.3935 12.7013L10.7121 12.7508H10.7053ZM6.33506 8.12435C5.88328 8.12435 5.44163 7.99038 5.06598 7.73938C4.69034 7.48838 4.39755 7.13162 4.22466 6.71423C4.05177 6.29683 4.00653 5.83753 4.09467 5.39443C4.18281 4.95132 4.40037 4.5443 4.71983 4.22484C5.0393 3.90538 5.44632 3.68782 5.88942 3.59968C6.33253 3.51154 6.79182 3.55678 7.20922 3.72967C7.62662 3.90256 7.98337 4.19534 8.23437 4.57099C8.48537 4.94664 8.61935 5.38828 8.61935 5.84007C8.61874 6.44571 8.37788 7.02638 7.94963 7.45463C7.52137 7.88289 6.94071 8.12374 6.33506 8.12435ZM6.33506 4.31721C6.03387 4.31721 5.73944 4.40653 5.48901 4.57386C5.23858 4.74119 5.04339 4.97903 4.92813 5.2573C4.81287 5.53556 4.78271 5.84176 4.84147 6.13716C4.90023 6.43257 5.04527 6.70391 5.25824 6.91689C5.47122 7.12986 5.74256 7.2749 6.03797 7.33366C6.33337 7.39242 6.63957 7.36226 6.91783 7.247C7.1961 7.13174 7.43394 6.93655 7.60127 6.68612C7.7686 6.43569 7.85792 6.14126 7.85792 5.84007C7.85792 5.43618 7.69747 5.04884 7.41188 4.76325C7.12629 4.47766 6.73895 4.31721 6.33506 4.31721Z" fill="#3B5D8F" stroke="#3B5D8F" stroke-width="0.400002"/>
<path d="M8.23483 8.50409C8.13386 8.50407 8.03704 8.46394 7.96566 8.39254L6.44281 6.86969C6.37346 6.79788 6.33508 6.70171 6.33595 6.60189C6.33682 6.50207 6.37686 6.40658 6.44745 6.336C6.51803 6.26541 6.61352 6.22537 6.71334 6.2245C6.81317 6.22363 6.90933 6.26201 6.98114 6.33136L8.50399 7.85421C8.55722 7.90746 8.59347 7.97529 8.60815 8.04913C8.62283 8.12297 8.61529 8.1995 8.58648 8.26906C8.55768 8.33862 8.50889 8.39807 8.4463 8.4399C8.3837 8.48174 8.31011 8.50407 8.23483 8.50409Z" fill="#3B5D8F" stroke="#3B5D8F" stroke-width="0.400002"/>
</svg>
