<svg width="21" height="21" viewBox="0 0 21 21" fill="none" xmlns="http://www.w3.org/2000/svg">
<path d="M2.12666 20.1553C1.84274 20.1539 1.56316 20.0855 1.31073 19.9555C1.0583 19.8255 0.840162 19.6377 0.674115 19.4074C0.508068 19.1771 0.398812 18.9108 0.355256 18.6302C0.311701 18.3497 0.335081 18.0628 0.423489 17.793L1.28429 15.2341C1.38555 14.9483 1.37569 14.6348 1.25665 14.3559C0.2705 12.2249 0.0657234 9.81479 0.678201 7.54792C1.29068 5.28105 2.68134 3.30201 4.60652 1.95757C6.5317 0.613135 8.86859 -0.0109465 11.2077 0.194681C13.5469 0.400309 15.739 1.42253 17.4001 3.08223C19.0612 4.74193 20.0853 6.93324 20.2929 9.2722C20.5005 11.6112 19.8783 13.9486 18.5355 15.8749C17.1927 17.8012 15.2148 19.1935 12.9485 19.8079C10.6821 20.4223 8.27183 20.2195 6.13996 19.2351C5.85568 19.1127 5.53542 19.1032 5.24436 19.2085L2.69677 20.0642C2.51283 20.1249 2.32034 20.1556 2.12666 20.1553ZM10.315 1.73159C8.89837 1.72872 7.50388 2.0829 6.26033 2.76141C5.01678 3.43991 3.96427 4.42086 3.20002 5.61364C2.43578 6.80642 1.98445 8.17256 1.88773 9.58587C1.791 10.9992 2.052 12.4141 2.64662 13.6998C2.93195 14.3332 2.96634 15.0513 2.74283 15.7091L1.87999 18.2802C1.86433 18.3253 1.86219 18.3741 1.87382 18.4205C1.88546 18.4668 1.91037 18.5088 1.94549 18.5412C1.97838 18.5763 2.02069 18.6011 2.06736 18.6127C2.11402 18.6244 2.16304 18.6223 2.20854 18.6067L4.76739 17.7479C5.43108 17.5197 6.15695 17.5541 6.79605 17.8442C7.94269 18.3702 9.19265 18.6324 10.454 18.6117C11.7154 18.5909 12.956 18.2877 14.0848 17.7243C15.2135 17.1609 16.2015 16.3516 16.9763 15.356C17.751 14.3604 18.2927 13.2037 18.5615 11.9712C18.8303 10.7386 18.8194 9.46148 18.5296 8.2337C18.2398 7.00591 17.6784 5.85871 16.8868 4.87647C16.0951 3.89423 15.0934 3.10194 13.9552 2.55788C12.8171 2.01381 11.5714 1.73181 10.3099 1.73261L10.315 1.73159ZM15.1717 8.12974C15.1717 7.92614 15.0908 7.73089 14.9468 7.58692C14.8029 7.44296 14.6076 7.36208 14.404 7.36208H6.2157C6.01211 7.36208 5.81685 7.44296 5.67289 7.58692C5.52893 7.73089 5.44805 7.92614 5.44805 8.12974C5.44805 8.33333 5.52893 8.52859 5.67289 8.67255C5.81685 8.81651 6.01211 8.89739 6.2157 8.89739H14.404C14.6076 8.89739 14.8029 8.81651 14.9468 8.67255C15.0908 8.52859 15.1717 8.33333 15.1717 8.12974ZM12.1011 12.2239C12.1011 12.0203 12.0202 11.825 11.8762 11.6811C11.7323 11.5371 11.537 11.4562 11.3334 11.4562H6.2157C6.01211 11.4562 5.81685 11.5371 5.67289 11.6811C5.52893 11.825 5.44805 12.0203 5.44805 12.2239C5.44805 12.4275 5.52893 12.6227 5.67289 12.7667C5.81685 12.9107 6.01211 12.9916 6.2157 12.9916H11.3334C11.537 12.9916 11.7323 12.9107 11.8762 12.7667C12.0202 12.6227 12.1011 12.4275 12.1011 12.2239Z" fill="#3F3F3F"/>
</svg>
