<svg width="20" height="18" viewBox="0 0 20 18" fill="none" xmlns="http://www.w3.org/2000/svg">
<path d="M14.6875 0.328125C13.6022 0.328125 12.6072 0.672031 11.7302 1.35031C10.9181 1.97841 10.3681 2.77254 10.0345 3.3687C10.0195 3.39564 9.98055 3.39564 9.96547 3.36869C9.63192 2.7725 9.08195 1.97841 8.2698 1.35031C7.39277 0.672031 6.39777 0.328125 5.3125 0.328125C2.28391 0.328125 0 2.80535 0 6.09039C0 9.63937 2.84934 12.0675 7.16285 15.7434C7.89535 16.3677 8.72563 17.0753 9.58859 17.8299C9.70234 17.9295 9.84844 17.9844 10 17.9844C10.1516 17.9844 10.2977 17.9295 10.4114 17.83C11.2745 17.0752 12.1047 16.3677 12.8376 15.743C17.1507 12.0675 20 9.63937 20 6.09039C20 2.80535 17.7161 0.328125 14.6875 0.328125Z" fill="#6688CC"/>
</svg>
