<svg width="20" height="18" viewBox="0 0 20 18" fill="none" xmlns="http://www.w3.org/2000/svg">
<path d="M7.64933 15.1726L7.64931 15.1726C5.47525 13.3199 3.74222 11.8398 2.54133 10.3907C1.35944 8.96463 0.75 7.63416 0.75 6.09039C0.75 3.16102 2.75434 1.07812 5.3125 1.07812C6.22787 1.07812 7.06226 1.36454 7.81097 1.94359L8.26517 1.3563L7.81098 1.94359C8.51579 2.48868 9.00628 3.19033 9.31095 3.73489C9.61232 4.27356 10.3876 4.27358 10.689 3.73491C10.9937 3.19035 11.4842 2.48867 12.189 1.94359C12.9377 1.36454 13.7721 1.07812 14.6875 1.07812C17.2457 1.07812 19.25 3.16102 19.25 6.09039C19.25 7.63417 18.6406 8.96463 17.4587 10.3907C16.2579 11.8397 14.525 13.3197 12.3512 15.1722L12.3511 15.1722L12.3504 15.1728C11.6413 15.7772 10.8373 16.4623 10 17.1934C9.16334 16.4629 8.35986 15.7781 7.65142 15.1744L7.64933 15.1726ZM9.91768 17.2654C9.918 17.2651 9.91832 17.2648 9.91864 17.2646L9.91768 17.2654Z" stroke="#3F3F3F" stroke-width="1.5"/>
</svg>
