<svg width="40" height="41" viewBox="0 0 40 41" fill="none" xmlns="http://www.w3.org/2000/svg">
<rect x="0.1" y="0.6" width="39.8" height="39.8" rx="19.9" fill="#D2DCF0" stroke="#E7E7E7" stroke-width="0.2"/>
<path d="M20.4574 17.2898C22.6085 17.2898 24.3523 15.546 24.3523 13.3949C24.3523 11.2438 22.6085 9.5 20.4574 9.5C18.3063 9.5 16.5625 11.2438 16.5625 13.3949C16.5625 15.546 18.3063 17.2898 20.4574 17.2898Z" fill="#94ACDC"/>
<path d="M28.3373 17.2879C29.6972 17.2879 30.7996 16.1855 30.7996 14.8256C30.7996 13.4657 29.6972 12.3633 28.3373 12.3633C26.9774 12.3633 25.875 13.4657 25.875 14.8256C25.875 16.1855 26.9774 17.2879 28.3373 17.2879Z" fill="#94ACDC"/>
<path d="M12.5795 17.2879C13.9394 17.2879 15.0418 16.1855 15.0418 14.8256C15.0418 13.4657 13.9394 12.3633 12.5795 12.3633C11.2196 12.3633 10.1172 13.4657 10.1172 14.8256C10.1172 16.1855 11.2196 17.2879 12.5795 17.2879Z" fill="#94ACDC"/>
<path d="M15.0075 19.4983C14.0383 18.7042 13.1605 18.8093 12.0398 18.8093C10.3637 18.8093 9 20.1649 9 21.8308V26.72C9 27.4434 9.5905 28.0317 10.3167 28.0317C13.4516 28.0317 13.074 28.0884 13.074 27.8965C13.074 24.432 12.6636 21.8913 15.0075 19.4983Z" fill="#94ACDC"/>
<path d="M21.5213 18.8302C19.5638 18.6669 17.8623 18.8321 16.3948 20.0434C13.9389 22.0106 14.4115 24.6592 14.4115 27.8995C14.4115 28.7567 15.109 29.4673 15.9793 29.4673C25.4292 29.4673 25.8053 29.7721 26.3657 28.5312C26.5495 28.1115 26.4991 28.2449 26.4991 24.2302C26.4991 21.0415 23.7381 18.8302 21.5213 18.8302ZM28.8764 18.8123C27.7495 18.8123 26.8766 18.7082 25.9086 19.5013C28.235 21.8765 27.8422 24.2439 27.8422 27.8995C27.8422 28.0926 27.5287 28.0347 30.5525 28.0347C31.3046 28.0347 31.9162 27.4254 31.9162 26.6764V21.8337C31.9162 20.1679 30.5525 18.8123 28.8764 18.8123Z" fill="#94ACDC"/>
<mask id="mask0_2734_34056" style="mask-type:alpha" maskUnits="userSpaceOnUse" x="9" y="9" width="23" height="21">
<path d="M20.4574 17.2898C22.6085 17.2898 24.3523 15.546 24.3523 13.3949C24.3523 11.2438 22.6085 9.5 20.4574 9.5C18.3063 9.5 16.5625 11.2438 16.5625 13.3949C16.5625 15.546 18.3063 17.2898 20.4574 17.2898Z" fill="#A3B8E0"/>
<path d="M28.3373 17.2879C29.6972 17.2879 30.7996 16.1855 30.7996 14.8256C30.7996 13.4657 29.6972 12.3633 28.3373 12.3633C26.9774 12.3633 25.875 13.4657 25.875 14.8256C25.875 16.1855 26.9774 17.2879 28.3373 17.2879Z" fill="#A3B8E0"/>
<path d="M12.5795 17.2879C13.9394 17.2879 15.0418 16.1855 15.0418 14.8256C15.0418 13.4657 13.9394 12.3633 12.5795 12.3633C11.2196 12.3633 10.1172 13.4657 10.1172 14.8256C10.1172 16.1855 11.2196 17.2879 12.5795 17.2879Z" fill="#A3B8E0"/>
<path d="M15.0075 19.4983C14.0383 18.7042 13.1605 18.8093 12.0398 18.8093C10.3637 18.8093 9 20.1649 9 21.8308V26.72C9 27.4434 9.5905 28.0317 10.3167 28.0317C13.4516 28.0317 13.074 28.0884 13.074 27.8965C13.074 24.432 12.6636 21.8913 15.0075 19.4983Z" fill="#A3B8E0"/>
<path d="M21.5213 18.8302C19.5638 18.6669 17.8623 18.8321 16.3948 20.0434C13.9389 22.0106 14.4115 24.6592 14.4115 27.8995C14.4115 28.7567 15.109 29.4673 15.9793 29.4673C25.4292 29.4673 25.8053 29.7721 26.3657 28.5312C26.5495 28.1115 26.4991 28.2449 26.4991 24.2302C26.4991 21.0415 23.7381 18.8302 21.5213 18.8302ZM28.8764 18.8123C27.7495 18.8123 26.8766 18.7082 25.9086 19.5013C28.235 21.8765 27.8422 24.2439 27.8422 27.8995C27.8422 28.0926 27.5287 28.0347 30.5525 28.0347C31.3046 28.0347 31.9162 27.4254 31.9162 26.6764V21.8337C31.9162 20.1679 30.5525 18.8123 28.8764 18.8123Z" fill="#A3B8E0"/>
</mask>
<g mask="url(#mask0_2734_34056)">
<path d="M16.5 9.5H25V18.0714L26.5 22L27 29.5H14V22L16.5 18.0714V9.5Z" fill="#7694D2"/>
</g>
</svg>
