<svg width="20" height="19" viewBox="0 0 20 19" fill="none" xmlns="http://www.w3.org/2000/svg">
<path d="M19 9.15625C18.4 9.15625 18 9.55625 18 10.1562C18 11.8563 16.7 13.1562 15 13.1562H3.4L4.7 11.8563C5.1 11.4563 5.1 10.8562 4.7 10.4563C4.3 10.0563 3.7 10.0563 3.3 10.4563L0.3 13.4563C0.2 13.5563 0.0999999 13.6563 0.0999999 13.7563C-1.00583e-07 13.8563 0 14.0563 0 14.1563C0 14.2563 -1.00583e-07 14.4563 0.0999999 14.5563C0.0999999 14.6563 0.2 14.7563 0.3 14.8563L3.3 17.8563C3.5 18.0563 3.7 18.1562 4 18.1562C4.3 18.1562 4.5 18.0563 4.7 17.8563C5.1 17.4563 5.1 16.8563 4.7 16.4562L3.4 15.1562H15C17.8 15.1562 20 12.9563 20 10.1562C20 9.55625 19.6 9.15625 19 9.15625ZM19.9 3.75625C19.9 3.65625 19.8 3.55625 19.7 3.45625L16.7 0.45625C16.3 0.05625 15.7 0.05625 15.3 0.45625C14.9 0.85625 14.9 1.45625 15.3 1.85625L16.6 3.15625H5C2.2 3.15625 0 5.35625 0 8.15625C0 8.75625 0.4 9.15625 1 9.15625C1.6 9.15625 2 8.75625 2 8.15625C2 6.45625 3.3 5.15625 5 5.15625H16.6L15.3 6.45625C14.9 6.85625 14.9 7.45625 15.3 7.85625C15.7 8.25625 16.3 8.25625 16.7 7.85625L19.7 4.85625C19.8 4.75625 19.9 4.65625 19.9 4.55625C20 4.45625 20 4.25625 20 4.15625C20 4.05625 20 3.85625 19.9 3.75625Z" fill="#3F3F3F"/>
</svg>
