<svg width="32" height="32" viewBox="0 0 32 32" fill="none" xmlns="http://www.w3.org/2000/svg">
<path fill-rule="evenodd" clip-rule="evenodd" d="M24.3604 0H16.7207V8.10916H18.0975C18.4509 8.10916 18.7375 8.3957 18.7375 8.74916V13.0312L22.9984 13.0312C23.3518 13.0312 23.6384 13.3178 23.6384 13.6712V15.3484H29.8378C31.032 15.3484 32 14.376 32 13.1765V7.67421C32 3.43586 28.5796 0 24.3604 0ZM16.7207 23.4576H18.0975C18.4509 23.4576 18.7375 23.171 18.7375 22.8176V18.5335H22.9984C23.3518 18.5335 23.6384 18.2469 23.6384 17.8935V16.6516H29.8378C31.032 16.6516 32 17.624 32 18.8235V24.3258C32 28.5641 28.5796 32 24.3604 32H16.7207V23.4576ZM8.35909 16.6516V17.8935C8.35909 18.2469 8.64562 18.5335 8.99909 18.5335H13.26V22.8176C13.26 23.171 13.5465 23.4576 13.9 23.4576H15.2793V32L2.16216 32C0.968032 32 0 31.0276 0 29.8281V18.8235C0 17.624 0.968034 16.6516 2.16216 16.6516H8.35909ZM15.2793 8.10916H13.9C13.5465 8.10916 13.26 8.3957 13.26 8.74916V13.0312L8.99909 13.0312C8.64562 13.0312 8.35909 13.3178 8.35909 13.6712V15.3484L2.16216 15.3484C0.968032 15.3484 0 14.376 0 13.1765V2.17195C0 0.972413 0.968035 0 2.16216 0L15.2793 2.0127e-06L15.2793 8.10916Z" fill="url(#paint0_linear_761_6763)"/>
<defs>
<linearGradient id="paint0_linear_761_6763" x1="0" y1="16.0724" x2="30.8468" y2="16.0724" gradientUnits="userSpaceOnUse">
<stop stop-color="#3B5D8F"/>
<stop offset="1" stop-color="#6688CC"/>
</linearGradient>
</defs>
</svg>
